PathFileType	4	(X/Y/Z)	C:\Users\WrightLab\Desktop\Jo\P5V41.trc
DataRate	CameraRate	NumFrames	NumMarkers	Units	OrigDataRate	OrigDataStartFrame	OrigNumFrames
100.00	100.00	      16	19	mm	100.00	428	      1140
Frame#	Time	Headset_Front			Headset_Back			Headset_Left			Headset_Right			Left_Shoulder			Right_Shoulder			Sternum			C7			Left Elbow			Right Elbow			Left Wrist			Right Wrist			Left ASIS			Right ASIS			S2			Left Knee			Right Knee			Left Ankle			Right Ankle			
		X1	Y1	Z1	X2	Y2	Z2	X3	Y3	Z3	X4	Y4	Z4	X5	Y5	Z5	X6	Y6	Z6	X7	Y7	Z7	X8	Y8	Z8	X9	Y9	Z9	X10	Y10	Z10	X11	Y11	Z11	X12	Y12	Z12	X13	Y13	Z13	X14	Y14	Z14	X15	Y15	Z15	X16	Y16	Z16	X17	Y17	Z17	X18	Y18	Z18	X19	Y19	Z19	

428	4.270	100.09917	1435.08313	-501.71472	12.44192	1518.42566	-587.45673							387.73657	1518.07593	-717.62402	-3.89073	1404.59949	-700.89795	130.53819	1719.33765	-630.38177	164.80318	1517.78821	-839.16687	501.95850	1205.79053	-741.67468	-76.80019	1126.62024	-712.35071	483.02274	966.25037	-660.90210	-79.07417	998.30646	-502.64996	403.05862	927.98267	-673.98053	104.74202	917.76105	-644.30133	224.80948	984.24982	-923.33459	396.89636	490.68494	-725.00751	111.97044	556.73419	-519.45618	353.96326	81.17952	-885.15649	155.99323	130.07883	-611.59259	
429	4.280	99.98115	1434.51721	-496.61545	12.85663	1517.47046	-581.92926							388.08344	1517.80603	-712.26990	-3.80482	1404.82898	-696.17468	130.66197	1719.01746	-625.26843	165.34148	1517.78833	-834.00610	503.20865	1206.16943	-736.30701	-75.91167	1126.02942	-707.08215	482.54010	965.26849	-654.51532	-77.55482	997.85254	-497.39056	403.55423	927.80676	-668.38019	104.56971	917.41901	-639.86176	226.12085	983.93530	-917.75757	396.94028	490.42868	-718.14331	113.25648	553.93408	-517.28882	353.96326	81.17952	-885.15649	157.84824	125.78426	-593.80249	
430	4.290	102.59171	1435.18140	-485.66177	13.16246	1517.33496	-576.94061										-1.85753	1404.34180	-691.21936	130.80794	1718.91736	-619.15601	166.20975	1517.22192	-827.75781	500.99496	1204.82690	-729.70020	-75.43000	1126.48523	-702.12012	480.31778	964.50586	-648.59045	-76.14747	997.10059	-492.77048	401.91653	926.12488	-662.29938	104.77746	916.97021	-633.34235	227.20807	983.42938	-912.57446	396.41895	490.03503	-711.91278	112.06950	551.56683	-515.02551	354.47440	82.33586	-883.14844	158.87051	122.50804	-576.70239	
431	4.300	101.42751	1433.11792	-484.77390	13.34572	1516.83228	-571.44696							388.76611	1516.80566	-699.21375	-2.19700	1403.53406	-685.62140	130.51140	1718.71289	-614.50159	166.81432	1517.28943	-822.67505	499.30582	1203.36670	-721.50629	-73.65811	1125.65613	-696.87811	479.65698	963.69611	-642.53674	-74.66064	996.45227	-487.03571	400.93283	926.22876	-657.61438	105.25063	916.51801	-627.78784	228.46548	983.08179	-906.68970	396.32849	490.05124	-706.77814	113.25170	548.51093	-513.82953	354.16257	82.17123	-882.90527	159.46007	119.20351	-559.22253	
432	4.310	102.43742	1434.32031	-476.66370	13.48770	1516.23511	-565.74011										-2.28952	1403.67847	-681.47046	130.24614	1718.74133	-609.01801	167.39026	1516.46704	-816.82971	500.43472	1202.66431	-715.16486	-72.75121	1124.76904	-691.04474	478.56598	963.06146	-636.14001	-73.79718	996.50220	-481.84174	399.33490	924.05200	-653.76654	105.92291	915.67889	-621.21509	229.09819	983.30194	-901.90863	395.87265	490.16968	-701.96838	113.21510	545.62695	-512.03119	353.76648	82.47853	-883.13672	159.34720	116.82085	-542.29950	
433	4.320	102.45848	1432.48669	-471.90594	13.37880	1515.79114	-560.32623							388.79816	1515.96387	-687.41406	-1.63396	1403.24268	-674.88031	130.25815	1717.95349	-602.46899	167.52397	1515.92993	-810.81366	499.54129	1201.58594	-707.83173	-72.39487	1124.42297	-686.03345	476.62589	961.87402	-630.47052	-72.25291	995.50385	-476.48578	399.41785	924.43335	-646.51373	105.26455	915.13226	-617.03516	230.38344	982.35931	-895.76538	395.92886	489.49420	-696.93530	114.84379	542.73413	-510.50528	353.76648	82.47853	-883.13672	157.96518	115.48544	-527.29974	
434	4.330	101.26531	1433.07068	-466.44748	12.99775	1515.15930	-555.38593							388.88306	1515.46948	-680.53064	-1.75169	1402.25195	-670.69806	129.68857	1717.70398	-597.36340	167.89255	1515.69690	-805.86218	500.26816	1202.71497	-702.27234	-72.17976	1124.06714	-680.30170	475.00165	960.85962	-624.34308	-71.10259	994.91510	-470.69965	399.26782	924.37616	-640.85455	104.70653	915.51801	-611.37054	231.27438	981.40747	-889.19110	394.64517	488.66882	-693.07703	115.33327	539.89185	-507.23773	353.91315	83.09277	-882.58942	157.88414	114.63678	-513.52740	
435	4.340	99.92764	1432.05542	-462.73849	12.76845	1514.56567	-548.81610							388.39853	1515.22827	-675.30011	-1.36164	1401.79419	-664.78650	129.47653	1716.76196	-591.05920	167.54774	1515.06482	-799.89063	498.99542	1200.80896	-694.50385	-71.67395	1123.42017	-674.55139	473.74936	960.80743	-617.77283	-70.41358	994.19348	-465.17459	397.66553	923.53699	-635.07813	105.17541	914.45807	-604.12531	231.78893	980.84399	-883.04730	394.04391	487.83472	-689.35980	115.72145	538.62286	-505.94443	352.82263	83.43674	-882.68298	156.48856	113.17673	-499.62558	
436	4.350	101.24026	1431.91479	-451.96494	12.25789	1514.33679	-543.33820							388.23193	1515.01624	-668.17310	-3.05133	1401.76599	-658.53503	128.83299	1716.67017	-585.08496	167.24678	1514.21826	-793.85504	498.31769	1201.41675	-688.11292	-70.96765	1122.44653	-668.94147	472.07571	959.44202	-612.01593	-69.58301	993.80487	-459.73285	397.30511	922.70306	-629.86475	104.77142	914.02509	-597.73901	232.28304	980.00275	-877.20679	393.47028	487.13135	-685.45447	116.76975	535.52954	-502.09723	354.09210	86.09338	-880.55182	156.03717	112.33550	-487.54562	
437	4.360	99.65366	1431.52356	-449.39587	11.49324	1513.94495	-538.49030										-3.48019	1400.34265	-653.55872	215.23088	1289.11084	-598.54474	167.22868	1514.02197	-788.07892	497.86249	1200.76794	-680.83234	-71.69349	1121.74255	-662.70160	469.77835	958.93890	-605.45331	-68.96498	992.90027	-453.17188	397.29739	922.82574	-623.34912	104.58394	913.36450	-590.97839	233.17799	979.70099	-868.94843	392.77313	486.65146	-681.75861	117.26652	533.77637	-498.12183	353.77805	86.19441	-880.58557	155.21111	112.21003	-478.87500	
438	4.370	100.21853	1431.57275	-440.46344	10.78516	1513.59192	-532.73096							387.26816	1514.09473	-655.67151	-3.52843	1400.32629	-647.55646	216.56776	1288.58899	-593.29846	166.97659	1513.39246	-782.22461	494.82660	1200.02466	-674.16766	-71.41012	1121.17773	-658.34943	469.72083	958.46674	-598.35156	-68.51360	991.99756	-447.10175	395.38321	922.20123	-617.14838	104.44611	913.35907	-584.17059	233.73662	978.77814	-862.19995	391.54468	485.96500	-678.85236	117.57835	532.25537	-493.40994	354.23401	86.70579	-880.28717	155.40698	110.39948	-469.06326	
439	4.380	98.20509	1430.16333	-438.41339	10.08725	1513.07385	-526.27893										-3.00739	1398.35913	-641.23901	215.44649	1287.16638	-586.84680	166.53397	1512.30457	-776.03247	495.54330	1200.03662	-667.74341	-70.77235	1118.84937	-650.44110	468.73129	957.96954	-591.80969	-67.94587	991.10101	-440.13611	393.29269	921.89954	-611.44635	104.51234	912.51807	-577.12170	234.22455	977.87646	-855.91071	390.07092	485.12067	-676.41986	119.67503	530.34711	-488.34500	354.16730	87.39568	-879.68561	155.60701	109.21015	-462.04837	
440	4.390	97.21170	1429.89514	-432.47452	9.23480	1512.51160	-520.13556							385.55078	1513.94348	-643.30927	-4.16858	1397.70166	-636.04443	214.30821	1287.40527	-580.06592	165.92879	1511.73950	-770.38373	495.10529	1198.88293	-660.72876	-71.45203	1118.01648	-644.06073	466.33197	956.86090	-585.51617	-67.52348	990.27588	-434.07983	392.92239	921.71301	-605.05695	103.52242	911.75269	-570.29102	234.39032	977.30450	-849.37445	388.33182	484.20547	-673.56897	117.54404	528.56158	-483.57831	354.21091	87.94972	-878.46082	154.97316	107.28745	-455.95334	
441	4.400	97.30235	1430.38281	-425.46844	8.17099	1511.90955	-514.25525							384.61383	1513.65613	-637.32874	-6.10052	1397.63843	-630.70135	213.75562	1287.48425	-573.05865	164.89465	1511.05164	-764.35388	494.79254	1199.20337	-653.84808	-71.60699	1116.87793	-637.59222	465.10675	956.73053	-577.35388	-67.08209	989.79193	-427.62189	391.73874	922.15656	-599.05859	103.85620	911.73645	-562.98346	234.45282	976.52338	-842.88007	386.30972	484.12149	-670.21997	119.63551	526.46210	-478.86508	354.22437	88.75946	-877.84418	154.65216	106.17325	-453.09930	
442	4.410	95.53799	1428.96228	-419.45465	7.04133	1510.87000	-507.76425							383.53851	1513.21423	-630.33948	-6.36170	1396.06213	-624.29431	212.94987	1286.52698	-566.91644	163.96046	1510.04578	-757.87164	492.27747	1199.25061	-645.93018	-72.07366	1116.36157	-631.72601	465.51825	956.17676	-571.62671	-67.07933	989.13287	-421.57974	390.12161	921.73511	-592.68146	102.87998	910.90784	-556.54181	234.79620	975.31958	-835.57709	384.63809	483.59140	-667.25818	117.55001	525.18842	-473.24374	353.44128	88.91618	-877.82745	154.98550	103.31373	-447.96146	
443	4.420	94.56190	1428.96082	-413.19632	5.77774	1510.32239	-501.83176							220.87517	1593.29797	-460.09396	-6.34127	1395.34570	-618.43378	212.53403	1286.09485	-559.45166	163.16814	1508.94482	-751.50220	491.18750	1197.70410	-639.14551	-72.72114	1115.69031	-625.86475	463.83575	956.28119	-565.01160	-66.45975	988.15320	-413.69073	388.89624	921.11554	-586.12061	102.89487	910.24286	-549.83020	235.18005	974.00641	-826.20636	382.59921	483.46899	-663.38525	117.65114	523.34448	-467.79984	354.55176	89.94904	-877.63110	155.10155	101.02512	-444.75046	
